<svg width="100" height="23" xmlns="http://www.w3.org/2000/svg">
 <g>
  <title>Layer 1</title>
  <g id="svg_1">
   <g id="svg_2">
    <path d="m67.4,3c2.4,0 4.5,0.9 6.2,2.6c1.7,1.7 2.60001,3.8 2.60001,6.2v2.8c0,2.3 -0.9,4.4 -2.60001,6.2c-1.7,1.5 -3.8,2.3 -6.2,2.3s-4.4,-0.8 -6.2,-2.3c-1.7,-1.7 -2.6,-3.8 -2.6,-6.2v-2.8c0,-2.3 0.9,-4.4 2.6,-6.2c1.7,-1.7 3.8,-2.6 6.2,-2.6zm-4.7,4.1c-1.3,1.3 -1.9,2.9 -1.9,4.6v2.8c0,1.8 0.6,3.4 1.9,4.7c1.4,1.3 3,1.9 4.7,1.9c1.8,0 3.4,-0.6 4.6,-1.9c1.3,-1.3 1.9,-2.9 1.9,-4.7v-2.8c0,-1.8 -0.6,-3.4 -1.9,-4.6c-1.3,-1.3 -2.9,-1.9 -4.6,-1.9c-1.9,0 -3.4,0.7 -4.7,1.9zm30.7,-2.1l-6.9,8.2l6.9,8.2l-1.6,1.4l-6.6,-7.8l-6.60001,7.8l-1.6,-1.4l6.9,-8.2l-6.9,-8.2l1.6,-1.3l6.60001,7.8l6.6,-7.8c0,0 1.6,1.3 1.6,1.3zm-69.5,2.1c-1.3,1.3 -1.9,2.9 -1.9,4.6v11.1h-2.1v-11c0,-2.3 0.9,-4.4 2.6,-6.2s3.8,-2.6 6.2,-2.6c2.4,0 4.5,0.9 6.2,2.6c1.7,1.7 2.6,3.8 2.6,6.2v11.1h-2.2v-11.1c0,-1.8 -0.6,-3.4 -1.9,-4.6c-1.3,-1.3 -2.9,-1.9 -4.6,-1.9c-2.1,-0.1 -3.6,0.6 -4.9,1.8zm25.7,-1.8c-0.5,-0.1 -1,-0.2 -1.5,-0.2s-1,0.1 -1.5,0.2c-0.2,0 -0.3,0.1 -0.4,0.2l0,0c-0.8,0.3 -1.6,0.4 -2.3,0.4c-0.9,0 -1.6,-0.2 -2.2,-0.5c-0.1,-0.2 -0.3,-0.2 -0.4,-0.2c-0.7,-0.5 -1.2,-1.1 -1.5,-2c-0.2,-0.5 -0.3,-1 -0.3,-1.6v-1.6h2.1v1.6l0,0c0,0.3 0.1,0.6 0.2,0.9c0.2,0.4 0.4,0.8 0.8,1c0.3,0.3 0.9,0.4 1.5,0.4c0.3,0 0.6,-0.1 1,-0.2c1,-0.3 2.1,-0.6 3.1,-0.6c2.2,0 4.2,0.7 5.8,2.2l0.3,0.3c1.7,1.7 2.6,3.8 2.6,6.2v2.8c0,2.3 -0.9,4.4 -2.6,6.2c-1.7,1.5 -3.8,2.3 -6.2,2.3s-4.4,-0.8 -6.2,-2.3c-1.7,-1.7 -2.6,-3.7 -2.6,-6.2v-0.3h2.1v0.3c0,1.8 0.6,3.4 1.9,4.7c1.4,1.3 3,1.9 4.7,1.9c1.8,0 3.4,-0.6 4.6,-1.9c1.3,-1.3 1.9,-2.9 1.9,-4.7v-2.8c0,-1.8 -0.6,-3.4 -1.9,-4.6c-0.8,-1 -1.8,-1.6 -3,-1.9zm-49.4,-1.9h2.1v11c0,1.8 0.6,3.4 1.9,4.7c1.4,1.3 3,1.9 4.7,1.9s3.4,-0.6 4.6,-1.9c1.3,-1.3 1.9,-2.9 1.9,-4.7v-11h2.1v11c0,2.3 -0.9,4.4 -2.6,6.2c-1.7,1.5 -3.8,2.3 -6.2,2.3s-4.4,-0.8 -6.2,-2.3c-1.6,-1.6 -2.5,-3.7 -2.5,-6.2v-11c0.2,0 0.2,0 0.2,0z" fill="#FFFFFF" id="svg_3"/>
   </g>
   <text x="-0.6" y="-13.8" font-size="5.4772" font-family="'DIN-Light'" fill="#FFFFFF" transform="matrix(1,0,0,1,95.7138,21.0249) " id="svg_4">®</text>
  </g>
 </g>
</svg>