<svg width="54" height="54" xmlns="http://www.w3.org/2000/svg">
 <g>
  <title>Layer 1</title>
  <g id="svg_26">
   <g id="svg_27">
    <path id="svg_28" d="m4.8,44.2c-2.6,0 -4.8,-2.2 -4.8,-4.8c0,-2.7 2.2,-4.8 4.8,-4.8c2.7,0 4.8,2.2 4.8,4.8c0,2.6 -2.1,4.8 -4.8,4.8zm0,-7.5c-1.5,0 -2.7,1.2 -2.7,2.7c0,1.5 1.2,2.7 2.7,2.7c1.5,0 2.7,-1.2 2.7,-2.7c0,-1.5 -1.2,-2.7 -2.7,-2.7z" fill="#D32D40"/>
   </g>
   <g id="svg_29">
    <path id="svg_30" d="m16,27.4c-2.7,0 -4.8,-2.2 -4.8,-4.8c0,-2.7 2.2,-4.8 4.8,-4.8c2.7,0 4.8,2.2 4.8,4.8c0,2.6 -2.1,4.8 -4.8,4.8zm0,-7.5c-1.5,0 -2.7,1.2 -2.7,2.7c0,1.5 1.2,2.7 2.7,2.7c1.5,0 2.7,-1.2 2.7,-2.7c0,-1.5 -1.2,-2.7 -2.7,-2.7z" fill="#D32D40"/>
   </g>
   <g id="svg_31">
    <path id="svg_32" d="m34.7,29.8c-2.7,0 -4.8,-2.2 -4.8,-4.8c0,-2.7 2.2,-4.8 4.8,-4.8c2.7,0 4.8,2.2 4.8,4.8c0,2.7 -2.1,4.8 -4.8,4.8zm0,-7.4c-1.5,0 -2.7,1.2 -2.7,2.7c0,1.5 1.2,2.7 2.7,2.7c1.5,0 2.7,-1.2 2.7,-2.7c0,-1.5 -1.2,-2.7 -2.7,-2.7z" fill="#D32D40"/>
   </g>
   <g id="svg_33">
    <path id="svg_34" d="m49.2,19.4c-2.7,0 -4.8,-2.2 -4.8,-4.8c0,-2.7 2.2,-4.8 4.8,-4.8c2.7,0 4.8,2.2 4.8,4.8c0,2.7 -2.2,4.8 -4.8,4.8zm0,-7.5c-1.5,0 -2.7,1.2 -2.7,2.7c0,1.5 1.2,2.7 2.7,2.7c1.5,0 2.7,-1.2 2.7,-2.7c0,-1.5 -1.2,-2.7 -2.7,-2.7z" fill="#D32D40"/>
   </g>
   <g id="svg_35">
    <path id="svg_36" d="m38.1,24c-0.3,0 -0.7,-0.2 -0.9,-0.4c-0.3,-0.5 -0.2,-1.1 0.2,-1.5l7.7,-5.5c0.5,-0.3 1.1,-0.2 1.5,0.2c0.3,0.5 0.2,1.1 -0.2,1.5l-7.7,5.5c-0.2,0.2 -0.4,0.2 -0.6,0.2z" fill="#D32D40"/>
   </g>
   <g id="svg_37">
    <path id="svg_38" d="m30.5,26c-0.1,0 -0.1,0 -0.2,0l-10.8,-1.8c-0.6,-0.1 -1,-0.6 -0.9,-1.2c0.1,-0.6 0.6,-1 1.2,-0.9l10.8,1.8c0.6,0.1 1,0.6 0.9,1.2c0,0.5 -0.5,0.9 -1,0.9z" fill="#D32D40"/>
   </g>
   <g id="svg_39">
    <path id="svg_40" d="m7.4,36.4c-0.2,0 -0.4,-0.1 -0.6,-0.2c-0.5,-0.3 -0.6,-1 -0.3,-1.5l6.6,-9.4c0.3,-0.5 1,-0.6 1.5,-0.3c0.5,0.3 0.6,1 0.3,1.5l-6.7,9.5c-0.2,0.3 -0.5,0.4 -0.8,0.4z" fill="#D32D40"/>
   </g>
  </g>
 </g>
</svg>