<svg width="28" height="28" xmlns="http://www.w3.org/2000/svg">
 <g>
  <title>Layer 1</title>
  <g id="svg_122">
   <g id="svg_123">
    <path id="svg_124" d="m10.1,20c-0.2,0 -0.4,-0.1 -0.5,-0.3c-0.1,-0.2 -0.1,-0.5 0.1,-0.7c1.1,-1 2,-2.2 2.7,-3.5c-4.3,-1 -7.2,-4.1 -7.2,-7.5c0,-4.4 4.9,-8 10.9,-8c6,0 10.9,3.6 10.9,8c0,4.2 -4.2,7.6 -9.8,8c-1.8,1.8 -4,3.1 -6.5,3.9c-0.1,0 -0.2,0.1 -0.3,0.1l-0.1,0c-0.1,0 -0.1,0 -0.2,0zm6,-18.9c-5.4,0 -9.8,3.1 -9.8,6.9c0,3.1 2.9,5.8 7.1,6.7c0.2,0 0.3,0.1 0.4,0.3c0.1,0.2 0.1,0.3 0,0.5c-0.5,1 -1.1,1.9 -1.7,2.7c1.7,-0.8 3.2,-1.8 4.5,-3.1c0.1,-0.1 0.2,-0.2 0.4,-0.2c5,-0.3 8.9,-3.3 8.9,-6.9c0,-3.8 -4.4,-6.9 -9.8,-6.9z" fill="#FFFFFF"/>
   </g>
   <g id="svg_125">
    <path id="svg_126" d="m11.7,28c0,0 0,0 0,0c-2.4,0 -4.8,-0.9 -6.8,-2.6c-2.9,-2.5 -4.4,-6.2 -3.7,-9.6c0,-0.2 0.1,-0.3 0.1,-0.4l0,0c0,0 0,-0.1 0,-0.1c0.1,-0.2 0.2,-0.4 0.3,-0.6c0.1,-0.1 1.3,-1.1 2.5,-1.1c0.3,0 0.6,0.1 0.9,0.2c1.9,0.9 3.1,2.5 3.1,3.9c0,0.2 -0.1,0.3 -0.2,0.4l-2.2,1.8c0.1,0.4 0.4,1.2 1.5,2.3c1.2,1.2 2.4,1.3 3.1,1.3c0,0 0.1,0 0.1,0l1.3,-2.5c0.1,-0.1 0.2,-0.2 0.4,-0.3c0.2,0 0.4,-0.1 0.6,-0.1c1.3,0 2.7,0.8 3.9,2.1c0.4,0.5 0.6,1.1 0.5,1.8c-0.2,1 -0.9,2.1 -1.2,2.3c-1.3,0.8 -2.7,1.2 -4.2,1.2zm-9.2,-12.6c0,0 0,0 0,0.1c0,0 0,0.1 0,0.1l0,0.1c0,0 0,0 0,0c0,0.1 -0.1,0.2 -0.1,0.3c0,0 0,0 0,0c-0.6,3 0.6,6.3 3.3,8.5c1.8,1.5 3.9,2.3 6.1,2.3h0c1.3,0 2.6,-0.3 3.6,-0.9c0.3,-0.3 1.2,-1.8 0.5,-2.5c-1,-1.1 -2.3,-1.8 -3.3,-1.7l-1.3,2.5c-0.1,0.2 -0.2,0.3 -0.4,0.3c0,0 -0.2,0 -0.5,0c-0.8,0 -2.4,-0.2 -3.9,-1.7c-2,-2 -1.9,-3.3 -1.9,-3.4c0,-0.1 0.1,-0.3 0.2,-0.4l2.2,-1.6c-0.2,-0.9 -1.1,-2 -2.5,-2.7c-0.1,-0.1 -0.2,-0.1 -0.4,-0.1c-0.6,0.1 -1.5,0.7 -1.6,0.8z" fill="#FFFFFF"/>
   </g>
  </g>
 </g>
</svg>