<svg width="28" height="28" xmlns="http://www.w3.org/2000/svg">
 <g>
  <title>Layer 1</title>
  <g id="svg_108">
   <g id="svg_109">
    <path id="svg_110" d="m14,21.5c-0.2,0 -0.4,-0.1 -0.5,-0.3c-0.2,-0.5 -5.5,-10.9 -5.5,-14c0,-3.3 2.7,-6 6,-6c3.3,0 6,2.7 6,6c0,3.1 -5.3,13.5 -5.5,14c0,0.1 -0.2,0.3 -0.5,0.3zm0,-19.2c-2.7,0 -4.9,2.2 -4.9,4.9c0,2.1 3.1,8.9 4.9,12.4c1.7,-3.5 4.9,-10.3 4.9,-12.4c0,-2.7 -2.2,-4.9 -4.9,-4.9z" fill="#FFFFFF"/>
   </g>
   <g id="svg_111">
    <path id="svg_112" d="m14,11.4c-2.2,0 -4,-1.8 -4,-4c0,-2.2 1.8,-4 4,-4c2.2,0 4,1.8 4,4c0,2.2 -1.8,4 -4,4zm0,-6.8c-1.5,0 -2.8,1.3 -2.8,2.8c0,1.5 1.3,2.8 2.8,2.8c1.5,0 2.8,-1.3 2.8,-2.8c0,-1.6 -1.2,-2.8 -2.8,-2.8z" fill="#FFFFFF"/>
   </g>
   <g id="svg_113">
    <path id="svg_114" d="m27.4,26.9h-26.8c-0.2,0 -0.4,-0.1 -0.5,-0.3c-0.1,-0.2 -0.1,-0.4 -0.1,-0.6l4.2,-9.7c0.1,-0.2 0.4,-0.3 0.6,-0.3h3.8c0.3,0 0.6,0.3 0.6,0.6c0,0.3 -0.3,0.6 -0.6,0.6h-3.4l-3.7,8.6h25l-3.8,-8.6h-3.7c-0.3,0 -0.6,-0.3 -0.6,-0.6c0,-0.3 0.3,-0.6 0.6,-0.6h4c0.2,0 0.4,0.1 0.5,0.3l4.4,9.7c0.1,0.2 0.1,0.4 0,0.6c-0.1,0.2 -0.3,0.3 -0.5,0.3z" fill="#FFFFFF"/>
   </g>
  </g>
 </g>
</svg>