<svg width="40" height="40" xmlns="http://www.w3.org/2000/svg" xmlns:svg="http://www.w3.org/2000/svg">
    <g>
        <title>Layer 1</title>
        <g id="svg_122">
            <g id="svg_123">
                <path d="m14.9,27.9c-0.3,0 -0.5,-0.1 -0.7,-0.4c-0.1,-0.3 -0.1,-0.7 0.1,-0.9c1.5,-1.4 2.7,-3 3.6,-4.7c-5.8,-1.4 -9.7,-5.5 -9.7,-10.1c0,-5.9 6.6,-10.8 14.7,-10.8s14.7,4.9 14.7,10.8c0,5.7 -5.7,10.3 -13.2,10.8c-2.4,2.4 -5.4,4.2 -8.8,5.3c-0.1,0 -0.3,0.1 -0.4,0.1l-0.1,0c0,-0.1 0,-0.1 -0.2,-0.1zm8.1,-25.5c-7.3,0 -13.2,4.2 -13.2,9.3c0,4.2 3.9,7.8 9.6,9c0.3,0 0.4,0.1 0.5,0.4s0.1,0.4 0,0.7c-0.7,1.4 -1.5,2.6 -2.3,3.6c2.3,-1.1 4.3,-2.4 6.1,-4.2c0.1,-0.1 0.3,-0.3 0.5,-0.3c6.8,-0.4 12,-4.5 12,-9.3c0.1,-5 -5.9,-9.2 -13.2,-9.2z" fill="#FFFFFF" id="svg_124" />
            </g>
            <g id="svg_125">
                <path d="m17.1,38.7l0,0c-3.2,0 -6.5,-1.2 -9.2,-3.5c-3.9,-3.4 -5.9,-8.4 -5,-13c0,-0.3 0.1,-0.4 0.1,-0.5l0,0l0,-0.1c0.1,-0.3 0.3,-0.5 0.4,-0.8c0.1,-0.1 1.8,-1.5 3.4,-1.5c0.4,0 0.8,0.1 1.2,0.3c2.6,1.2 4.2,3.4 4.2,5.3c0,0.3 -0.1,0.4 -0.3,0.5l-3,2.4c0.1,0.5 0.5,1.6 2,3.1c1.6,1.6 3.2,1.8 4.2,1.8l0.1,0l1.8,-3.4c0.1,-0.1 0.3,-0.3 0.5,-0.4c0.3,0 0.5,-0.1 0.8,-0.1c1.8,0 3.6,1.1 5.3,2.8c0.5,0.7 0.8,1.5 0.7,2.4c-0.3,1.4 -1.2,2.8 -1.6,3.1c-1.7,1.1 -3.6,1.6 -5.6,1.6zm-12.4,-17c0,0 0,0 0,0.1l0,0.1l0,0.1l0,0c0,0.1 -0.1,0.3 -0.1,0.4l0,0c-0.8,4.1 0.8,8.5 4.5,11.5c2.4,2 5.3,3.1 8.2,3.1l0,0c1.8,0 3.5,-0.4 4.9,-1.2c0.4,-0.4 1.6,-2.4 0.7,-3.4c-1.4,-1.5 -3.1,-2.4 -4.5,-2.3l-1.8,3.4c-0.1,0.3 -0.3,0.4 -0.5,0.4c0,0 -0.3,0 -0.7,0c-1.1,0 -3.2,-0.3 -5.3,-2.3c-2.7,-2.7 -2.6,-4.5 -2.6,-4.6s0.1,-0.4 0.3,-0.5l3,-2.2c-0.3,-1.2 -1.5,-2.7 -3.4,-3.6c-0.1,-0.1 -0.3,-0.1 -0.5,-0.1c-0.9,0.2 -2.1,1 -2.2,1.1z" fill="#FFFFFF" id="svg_126" />
            </g>
        </g>
    </g>
</svg>
