<svg width="40" height="40" xmlns="http://www.w3.org/2000/svg" xmlns:svg="http://www.w3.org/2000/svg">
    <g>
        <title>Layer 1</title>
        <g id="svg_108">
            <g id="svg_109">
                <path d="m20.1,30.5c-0.3,0 -0.6,-0.1 -0.7,-0.4c-0.3,-0.7 -7.7,-15.3 -7.7,-19.7c0,-4.6 3.8,-8.4 8.4,-8.4c4.6,0 8.4,3.8 8.4,8.4c0,4.4 -7.4,19 -7.7,19.7c0,0.2 -0.3,0.4 -0.7,0.4zm0,-26.9c-3.8,0 -6.9,3.1 -6.9,6.9c0,2.9 4.4,12.5 6.9,17.4c2.4,-4.9 6.9,-14.5 6.9,-17.4c0,-3.8 -3.1,-6.9 -6.9,-6.9z" fill="#FFFFFF" id="svg_110" />
            </g>
            <g id="svg_111">
                <path d="m20.1,16.3c-3.1,0 -5.6,-2.5 -5.6,-5.6c0,-3.1 2.5,-5.6 5.6,-5.6c3.1,0 5.6,2.5 5.6,5.6c0,3.1 -2.5,5.6 -5.6,5.6zm0,-9.5c-2.1,0 -3.9,1.8 -3.9,3.9s1.8,3.9 3.9,3.9c2.1,0 3.9,-1.8 3.9,-3.9c0,-2.2 -1.6,-3.9 -3.9,-3.9z" fill="#FFFFFF" id="svg_112" />
            </g>
            <g id="svg_113">
                <path d="m38.9,38.1l-37.6,0c-0.3,0 -0.6,-0.1 -0.7,-0.4s-0.1,-0.6 -0.1,-0.8l5.9,-13.6c0.1,-0.3 0.6,-0.4 0.8,-0.4l5.3,0c0.4,0 0.8,0.4 0.8,0.8c0,0.4 -0.4,0.8 -0.8,0.8l-4.8,0l-5.2,12.1l35.1,0l-5.3,-12.1l-5.2,0c-0.4,0 -0.8,-0.4 -0.8,-0.8c0,-0.4 0.4,-0.8 0.8,-0.8l5.6,0c0.3,0 0.6,0.1 0.7,0.4l6.2,13.6c0.1,0.3 0.1,0.6 0,0.8c-0.1,0.3 -0.4,0.4 -0.7,0.4z" fill="#FFFFFF" id="svg_114" />
            </g>
        </g>
    </g>
</svg>
