<svg width="46" height="46" xmlns="http://www.w3.org/2000/svg">
 <g>
  <title>Layer 1</title>
  <g id="svg_96">
   <g id="svg_97">
    <path id="svg_98" d="m25.6,31.5c0,0 0,0 0,0l-17.3,-0.3c-4.6,0 -8.3,-3.7 -8.3,-8.2c0,-4 2.8,-7.3 6.6,-8.1c0,-0.2 0,-0.4 0,-0.5c0,-6.7 5.5,-12.2 12.2,-12.2c6.1,0 11.2,4.5 12.1,10.5c0.4,-0.1 0.9,-0.1 1.3,-0.1c3.9,0 7.5,2.5 8.9,6.2c0.1,0.4 0,0.8 -0.4,0.9c-0.4,0.1 -0.8,0 -0.9,-0.4c-1.2,-3.1 -4.2,-5.2 -7.6,-5.2c-0.6,0 -1.2,0.1 -1.8,0.2c-0.2,0 -0.4,0 -0.6,-0.1c-0.2,-0.1 -0.3,-0.3 -0.3,-0.5c-0.4,-5.6 -5.1,-9.9 -10.7,-9.9c-5.9,0 -10.8,4.8 -10.8,10.8c0,0.4 0,0.7 0.1,1.1c0,0.4 -0.2,0.7 -0.6,0.8c-3.4,0.4 -6,3.3 -6,6.8c0,3.8 3.1,6.8 6.8,6.8l17.3,-0.1c0.4,0 0.7,0.3 0.7,0.7c0,0.4 -0.3,0.8 -0.7,0.8z" fill="#FFFFFF"/>
   </g>
   <g id="svg_99">
    <path id="svg_100" d="m42.8,43.9h-14.6c-1.8,0 -3.2,-1.4 -3.2,-3.2v-19.1c0,-1.8 1.4,-3.2 3.2,-3.2h14.6c1.8,0 3.2,1.4 3.2,3.2v19.1c0,1.7 -1.4,3.2 -3.2,3.2zm-14.6,-24.1c-1,0 -1.8,0.8 -1.8,1.8v19.1c0,1 0.8,1.8 1.8,1.8h14.6c1,0 1.8,-0.8 1.8,-1.8v-19.1c0,-1 -0.8,-1.8 -1.8,-1.8h-14.6l0,0z" fill="#FFFFFF"/>
   </g>
   <g id="svg_101">
    <path id="svg_102" d="m44.6,27.6h-18.3c-0.4,0 -0.7,-0.3 -0.7,-0.7c0,-0.4 0.3,-0.7 0.7,-0.7h18.3c0.4,0 0.7,0.3 0.7,0.7c0.1,0.4 -0.3,0.7 -0.7,0.7z" fill="#FFFFFF"/>
   </g>
   <g id="svg_103">
    <path id="svg_104" d="m44.6,35.6h-18.3c-0.4,0 -0.7,-0.3 -0.7,-0.7c0,-0.4 0.3,-0.7 0.7,-0.7h18.3c0.4,0 0.7,0.3 0.7,0.7c0.1,0.4 -0.3,0.7 -0.7,0.7z" fill="#FFFFFF"/>
   </g>
   <g id="svg_105">
    <circle id="svg_106" r="1.5" cy="23" cx="36.7" fill="#FFFFFF"/>
   </g>
   <g id="svg_107">
    <circle id="svg_108" r="1.5" cy="23" cx="41" fill="#FFFFFF"/>
   </g>
  </g>
 </g>
</svg>