<svg width="54" height="54" xmlns="http://www.w3.org/2000/svg">
 <g>
  <title>Layer 1</title>
  <g id="svg_8">
   <g id="svg_9">
    <path id="svg_10" d="m24.6,22.6h-16.3c-2.2,0 -3.9,-1.6 -3.9,-3.6v-11.3c0,-2 1.8,-3.6 3.9,-3.6h16.3c2.2,0 3.9,1.6 3.9,3.6v11.3c0,2 -1.8,3.6 -3.9,3.6zm-16.3,-16.8c-1.2,0 -2.2,0.9 -2.2,1.9v11.3c0,1.1 1,1.9 2.2,1.9h16.3c1.2,0 2.2,-0.9 2.2,-1.9v-11.3c0,-1.1 -1,-1.9 -2.2,-1.9h-16.3l0,0z" fill="#D32D40"/>
   </g>
   <g id="svg_11">
    <path id="svg_12" d="m31.5,29h-29.7c-1.1,0 -1.5,-0.6 -1.7,-0.9c-0.1,-0.3 -0.2,-1 0.5,-1.8l3.8,-3.8c0.8,-0.8 2.4,-1.5 3.6,-1.5c0,0 0,0 0,0c0.5,0 0.8,0.4 0.8,0.8c0,0.5 -0.4,0.9 -0.8,0.9c-0.8,0 -1.9,0.5 -2.5,1l-3.5,3.6h29.2l-3.6,-3.6c-0.5,-0.5 -1.7,-1 -2.5,-1c-0.5,0 -0.8,-0.4 -0.8,-0.9c0,-0.5 0.4,-0.8 0.9,-0.8c1.2,0 2.8,0.7 3.6,1.5l3.8,3.8c0.8,0.8 0.7,1.5 0.5,1.8c-0.1,0.3 -0.5,0.9 -1.6,0.9z" fill="#D32D40"/>
   </g>
   <g id="svg_13">
    <path id="svg_14" d="m51.6,49.9h-15.9c-1.3,0 -2.4,-1 -2.4,-2.2v-14.7c0,-0.2 0.1,-0.4 0.3,-0.6l7.4,-7.2c0.2,-0.2 0.4,-0.2 0.6,-0.2h10c1.3,0 2.4,1 2.4,2.2v20.6c0,1.1 -1.1,2.1 -2.4,2.1zm-16.5,-16.6v14.3c0,0.3 0.3,0.5 0.7,0.5h15.9c0.4,0 0.7,-0.3 0.7,-0.5v-20.5c0,-0.3 -0.3,-0.5 -0.7,-0.5h-9.7l-6.9,6.7z" fill="#D32D40"/>
   </g>
   <g id="svg_15">
    <path id="svg_16" d="m49.4,36.9h-10.6c-0.5,0 -0.8,-0.4 -0.8,-0.8c0,-0.5 0.4,-0.8 0.8,-0.8h10.6c0.5,0 0.8,0.4 0.8,0.8c0,0.4 -0.4,0.8 -0.8,0.8z" fill="#D32D40"/>
   </g>
   <g id="svg_17">
    <path id="svg_18" d="m49.4,40.7h-10.6c-0.5,0 -0.8,-0.4 -0.8,-0.8c0,-0.5 0.4,-0.8 0.8,-0.8h10.6c0.5,0 0.8,0.4 0.8,0.8c0,0.4 -0.4,0.8 -0.8,0.8z" fill="#D32D40"/>
   </g>
   <g id="svg_19">
    <path id="svg_20" d="m43,22c-0.3,0 -0.7,-0.2 -0.8,-0.5c-1.7,-4.6 -5.7,-8.1 -10.5,-9.2c-0.5,-0.1 -0.7,-0.6 -0.6,-1c0.1,-0.5 0.6,-0.7 1,-0.6c5.4,1.3 9.7,5.1 11.7,10.3c0.2,0.4 -0.1,0.9 -0.5,1.1c-0.1,-0.2 -0.2,-0.1 -0.3,-0.1z" fill="#D32D40"/>
   </g>
   <g id="svg_21">
    <path id="svg_22" d="m34.4,16.4c-0.3,0 -0.6,-0.2 -0.7,-0.4l-2.5,-4.3c-0.1,-0.2 -0.1,-0.5 0,-0.8l0.1,-0.1c0.1,-0.3 0.4,-0.4 0.7,-0.5l4.9,-0.6c0.5,-0.1 0.9,0.3 0.9,0.7c0.1,0.5 -0.3,0.9 -0.7,0.9l-3.8,0.4l1.9,3.3c0.2,0.4 0.1,0.9 -0.3,1.2c-0.2,0.2 -0.4,0.2 -0.5,0.2z" fill="#D32D40"/>
   </g>
   <g id="svg_23">
    <path id="svg_24" d="m29,42.2c0,0 -0.1,0 -0.1,0c-5.5,-0.9 -10.1,-4.4 -12.4,-9.4c-0.2,-0.4 0,-0.9 0.4,-1.1c0.4,-0.2 0.9,0 1.1,0.4c2.1,4.5 6.2,7.7 11.1,8.5c0.5,0.1 0.8,0.5 0.7,1c0,0.3 -0.4,0.6 -0.8,0.6z" fill="#D32D40"/>
   </g>
   <g id="svg_25">
    <path id="svg_26" d="m24.1,43.3c-0.4,0 -0.8,-0.3 -0.8,-0.7c-0.1,-0.5 0.2,-0.9 0.7,-1l3.7,-0.7l-2.1,-3.2c-0.3,-0.4 -0.2,-0.9 0.2,-1.2c0.4,-0.3 0.9,-0.2 1.2,0.2l2.7,4.1c0.2,0.2 0.2,0.5 0.1,0.8l0,0.1c-0.1,0.3 -0.3,0.5 -0.6,0.5l-4.9,0.9c-0.1,0.2 -0.1,0.2 -0.2,0.2z" fill="#D32D40"/>
   </g>
  </g>
 </g>
</svg>