<svg width="40" height="40" xmlns="http://www.w3.org/2000/svg" xmlns:svg="http://www.w3.org/2000/svg">
    <g>
        <title>Layer 1</title>
        <g id="svg_114">
            <g id="svg_115">
                <path d="m35.92631,34.3l-32.3,0c-1.6,0 -3,-1.4 -3,-3l0,-23.3c0,-1.6 1.4,-3 3,-3l32.3,0c1.6,0 3,1.4 3,3l0,23.4c0,1.6 -1.4,2.9 -3,2.9zm-32.4,-27.8c-0.8,0 -1.4,0.7 -1.4,1.4l0,23.4c0,0.8 0.7,1.4 1.4,1.4l32.3,0c0.8,0 1.4,-0.7 1.4,-1.4l0,-23.3c0,-0.8 -0.7,-1.4 -1.4,-1.4l-32.3,0c0,0 0,-0.1 0,-0.1z" fill="#FFFFFF" id="svg_116" />
            </g>
            <g id="svg_117">
                <path d="m19.72631,28.5c-0.8,0 -1.5,-0.3 -2.2,-0.8l-16.7,-16.8c-0.1,-0.1 -0.3,-0.4 -0.3,-0.5l0,-2.3c0,-1.6 1.4,-3 3,-3l32.3,0c1.6,0 3,1.4 3,3l0,2.3c0,0.3 -0.1,0.4 -0.3,0.5l-16.7,16.7c-0.6,0.6 -1.3,0.9 -2.1,0.9zm-17.5,-18.6l16.5,16.6c0.3,0.3 0.7,0.4 1,0.4c0.4,0 0.7,-0.1 1,-0.4l16.6,-16.6l0,-1.9c0,-0.8 -0.7,-1.4 -1.4,-1.4l-32.3,0c-0.8,0 -1.4,0.7 -1.4,1.4l0,1.9c0,0 0,0 0,0z" fill="#FFFFFF" id="svg_118" />
            </g>
            <g id="svg_119">
                <path d="m37.22631,33.9c-0.1,0 -0.4,-0.1 -0.5,-0.3l-11,-11c-0.3,-0.3 -0.3,-0.8 0,-1.1c0.3,-0.3 0.8,-0.3 1.1,0l11,11c0.3,0.3 0.3,0.8 0,1.1c-0.2,0.3 -0.4,0.3 -0.6,0.3z" fill="#FFFFFF" id="svg_120" />
            </g>
            <g id="svg_121">
                <path d="m2.22631,33.9c-0.1,0 -0.4,-0.1 -0.5,-0.3c-0.3,-0.3 -0.3,-0.8 0,-1.1l11,-11c0.3,-0.3 0.8,-0.3 1.1,0s0.3,0.8 0,1.1l-11,11c-0.2,0.3 -0.4,0.3 -0.6,0.3z" fill="#FFFFFF" id="svg_122" />
            </g>
        </g>
    </g>
</svg>
