<svg width="100" height="100" xmlns="http://www.w3.org/2000/svg">
 <g>
  <title>Layer 1</title>
  <g id="svg_1">
   <g id="svg_2">
    <path id="svg_3" d="m22.8,98c-2,0 -3.9,-0.3 -5.8,-0.9c-0.6,-0.2 -1,-0.6 -1.2,-1.2c-0.1,-0.6 0,-1.2 0.4,-1.6l10.1,-10.10001c0.7,-0.7 0.7,-1.7 0,-2.39999l-7.2,-7.2c-0.6,-0.6 -1.7,-0.6 -2.4,0l-9.9,10.2c-0.4,0.39999 -1,0.6 -1.6,0.39999c-0.6,-0.1 -1,-0.6 -1.2,-1.2c-2.1,-7 -0.3,-14.5 4.9,-19.7c3.7,-3.7 8.7,-5.8 13.9,-5.8c2.3,0 4.5,0.4 6.6,1.1l29.2,-29.2c-2.5,-7.2 -0.8,-15.1 4.6,-20.5c3.7,-3.7 8.7,-5.8 13.9,-5.8c2,0 3.9,0.3 5.8,0.9c0.6,0.2 1,0.6 1.2,1.2c0.1,0.6 0,1.2 -0.4,1.6l-10.1,10.2c-0.7,0.7 -0.7,1.7 0,2.4l7.2,7.2c0.6,0.6 1.7,0.6 2.39999,0l10.10001,-10.1c0.39999,-0.4 1,-0.6 1.6,-0.4c0.6,0.1 1,0.6 1.2,1.2c2.1,7 0.3,14.5 -4.9,19.7c-3.7,3.7 -8.7,5.8 -13.89999,5.8h0c-2.3,0 -4.5,-0.4 -6.60001,-1.1l-29.3,29.1c2.5,7.2 0.8,15.1 -4.6,20.5c-3.8,3.7 -8.7,5.7 -14,5.7zm-1.8,-3.5c0.6,0.1 1.2,0.1 1.9,0.1c4.4,0 8.4,-1.7 11.5,-4.8c4.7,-4.7 6.1,-11.7 3.5,-17.9c-0.3,-0.6 -0.1,-1.4 0.4,-1.9l30.7,-30.7c0.5,-0.5 1.2,-0.6 1.9,-0.4c2,0.8 4.1,1.3 6.3,1.3c4.4,0 8.4,-1.7 11.5,-4.8c3.60001,-3.6 5.2,-8.5 4.7,-13.4l-7.8,7.8c-1,1 -2.2,1.5 -3.6,1.5s-2.6,-0.5 -3.6,-1.5l-7.2,-7.2c-1,-1 -1.5,-2.2 -1.5,-3.6c0,-1.4 0.5,-2.6 1.5,-3.6l7.8,-7.7c-0.6,-0.1 -1.2,-0.1 -1.9,-0.1c-4.4,0 -8.4,1.7 -11.5,4.8c-4.7,4.7 -6.1,11.7 -3.5,17.9c0.3,0.6 0.1,1.4 -0.4,1.9l-30.7,30.7c-0.5,0.5 -1.2,0.6 -1.9,0.4c-2,-0.8 -4.1,-1.3 -6.3,-1.3c-4.4,0 -8.4,1.7 -11.5,4.8c-3.6,3.6 -5.3,8.5 -4.7,13.39999l7.8,-7.8c1,-1 2.2,-1.5 3.6,-1.5c1.4,0 2.6,0.5 3.6,1.5l7.2,7.2c1,1 1.5,2.2 1.5,3.6c0,1.4 -0.5,2.60001 -1.5,3.60001l-7.8,7.7z" fill="#D32D40"/>
   </g>
   <g id="svg_4">
    <g id="svg_5">
     <path id="svg_6" d="m38.1,47.6c-0.4,0 -0.9,-0.2 -1.2,-0.5l-11.4,-11.4l-6.6,6.6c-1.9,1.9 -5.1,1.9 -7,0l-10.3,-10.3c-0.9,-0.9 -1.4,-2.2 -1.4,-3.5c0,-1.3 0.5,-2.6 1.4,-3.5l22.2,-22.1c0.6,-0.6 1.8,-1.8 25.8,0.3c0.4,0 0.8,0.2 1.1,0.5c0.9,0.9 1.4,2.2 1.4,3.5c0,1.3 -0.5,2.6 -1.4,3.5l-13.2,13l11.4,11.4c0.7,0.7 0.7,1.7 0,2.4c-0.7,0.7 -1.7,0.7 -2.4,0l-12.6,-12.6c-0.3,-0.3 -0.5,-0.8 -0.5,-1.2s0.2,-0.9 0.5,-1.2l14.3,-14.3c0.3,-0.3 0.5,-0.7 0.5,-1.1c0,-0.2 -0.1,-0.5 -0.1,-0.7c-9.8,-0.8 -20.5,-1.4 -22.6,-1l-22,22c-0.3,0.3 -0.5,0.7 -0.5,1.1c0,0.4 0.2,0.8 0.5,1.1l10.3,10.3c0.6,0.6 1.6,0.6 2.2,0l7.8,-7.8c0.6,-0.6 1.8,-0.6 2.4,0l12.6,12.6c0.7,0.7 0.7,1.7 0,2.4c-0.3,0.3 -0.8,0.5 -1.2,0.5z" fill="#D32D40"/>
    </g>
    <g id="svg_7">
     <path id="svg_8" d="m88.5,98c-0.4,0 -0.9,-0.2 -1.2,-0.5l-32.1,-32.1c-0.7,-0.7 -0.7,-1.7 0,-2.4c0.7,-0.7 1.7,-0.7 2.4,0l31,31l7.2,-7.2l-31,-31c-0.7,-0.7 -0.7,-1.7 0,-2.4c0.7,-0.7 1.7,-0.7 2.39999,0l32.2,32.2c0.3,0.3 0.5,0.8 0.5,1.2c0,0.5 -0.2,0.89999 -0.5,1.2l-9.6,9.6c-0.4,0.3 -0.8,0.4 -1.3,0.4z" fill="#D32D40"/>
    </g>
   </g>
  </g>
 </g>
</svg>