<svg width="60" height="60" xmlns="http://www.w3.org/2000/svg">
 <g>
  <title>Layer 1</title>
  <g id="svg_597">
   <g id="svg_598">
    <path id="svg_599" d="m28.6,32.5l0,-0.6c-0.1,-1.199999 0.299999,-2.4 1.4,-3.699999c0.9,-1 1.4,-1.800001 1.4,-2.700001c0,-0.9 -0.6,-1.6 -1.799999,-1.6c-0.800001,0 -1.700001,0.200001 -2.300001,0.700001c-0.5,0.4 -1.099998,0.1 -1.299999,-0.4c-0.200001,-0.6 0,-1.200001 0.6,-1.6c0.800001,-0.5 2.1,-0.9 3.5,-0.9c2.800001,0 4.1,1.599998 4.1,3.4c0,1.6 -1,2.799999 -2,3.9c-0.900002,1 -1.200001,2 -1.200001,3l0,0.5c0,1.400002 -2.200001,1.400002 -2.4,0zm-0.1,3.799999c0,-0.900002 0.6,-1.599998 1.5,-1.599998c0.9,0 1.5,0.599998 1.5,1.599998c0,0.900002 -0.6,1.599998 -1.5,1.599998c-0.9,-0.099998 -1.5,-0.799999 -1.5,-1.599998z" fill="#002837"/>
   </g>
   <g id="svg_600">
    <g id="svg_601">
     <path id="svg_602" d="m39.099998,52.299999c-0.100002,0 -0.200001,0 -0.299999,-0.099998l-0.100002,-0.100002c-0.200001,-0.099998 -0.399998,-0.099998 -0.599998,-0.200001c-3.700001,-1.5 -7.199999,-4.099998 -9.9,-7.5c-4,-0.399998 -7.700001,-2.099998 -10.5,-4.799999c-2.9,-2.899998 -4.5,-6.599998 -4.5,-10.5c0,-8.5 7.5,-15.4 16.799999,-15.4s16.799997,6.900002 16.799997,15.4c0,6.600002 -4.599998,12.400002 -11.299999,14.600002c1.100002,2.599998 2.5,4.899998 4.200001,6.899998c0.200001,0.200001 0.299999,0.400002 0.299999,0.700001c0.100002,0.600002 -0.399998,1 -0.899998,1c0,0 0,0 0,0zm-9.099998,-36.699999c-8.200001,0 -14.9,6.1 -14.9,13.5c0,6.999998 6,12.9 13.6,13.499998c0.300001,0 0.5,0.200001 0.700001,0.400002c1.9,2.5 4.200001,4.5 6.700001,5.900002c-1.100002,-1.700001 -2,-3.5 -2.800003,-5.5c-0.099998,-0.300003 -0.099998,-0.5 0,-0.800003s0.400002,-0.399998 0.600002,-0.5c6.399998,-1.599998 10.899998,-7 10.899998,-12.999998c0.100002,-7.4 -6.599998,-13.5 -14.799999,-13.5z" fill="#002837"/>
    </g>
   </g>
  </g>
 </g>
</svg>