<svg width="46" height="46" xmlns="http://www.w3.org/2000/svg">
 <g>
  <title>Layer 1</title>
  <g id="svg_55">
   <g id="svg_56">
    <polygon id="svg_57" points="23.8,22.2 23.8,22.2 23.8,22.2 23.8,22.2 23.8,22.2 23.8,22.2   " fill="#FFFFFF"/>
   </g>
   <g id="svg_58">
    <polygon id="svg_59" points="23.8,22.2 23.8,22.2 23.8,22.2 23.8,22.2 23.8,22.2 23.8,22.2 23.8,22.2 23.8,22.2 23.8,22.2     23.8,22.2 23.8,22.2 23.8,22.2   " fill="#FFFFFF"/>
   </g>
   <g id="svg_60">
    <polygon id="svg_61" points="23.8,22.2 23.8,22.2 23.8,22.2 23.8,22.2 23.8,22.2 23.8,22.2   " fill="#FFFFFF"/>
   </g>
   <g id="svg_62">
    <polygon id="svg_63" points="23.8,22.2 23.8,22.2 23.8,22.2 23.8,22.2 23.8,22.2 23.8,22.2 23.8,22.2 23.8,22.2 23.8,22.2     23.8,22.2 23.8,22.2 23.8,22.2   " fill="#FFFFFF"/>
   </g>
   <g id="svg_64">
    <polygon id="svg_65" points="23.8,22.2 23.8,22.2 23.8,22.2 23.8,22.2 23.8,22.2 23.8,22.2 23.8,22.2 23.8,22.2 23.8,22.2     23.8,22.2 23.8,22.2 23.8,22.2   " fill="#FFFFFF"/>
   </g>
   <g id="svg_66">
    <polygon id="svg_67" points="23.8,22.2 23.8,22.2 23.8,22.2 23.8,22.2 23.8,22.2 23.8,22.2 23.8,22.2 23.8,22.2   " fill="#FFFFFF"/>
   </g>
   <g id="svg_68">
    <polygon id="svg_69" points="23.8,22.2 23.8,22.2 23.8,22.2 23.8,22.2 23.8,22.2 23.8,22.2 23.8,22.2 23.8,22.2   " fill="#FFFFFF"/>
   </g>
   <g id="svg_70">
    <polygon id="svg_71" points="23.8,22.2 23.8,22.2 23.8,22.2 23.8,22.2 23.8,22.2 23.8,22.2 23.8,22.2 23.8,22.2 23.8,22.2     23.8,22.2 23.8,22.2 23.8,22.2 23.8,22.2 23.8,22.2 23.8,22.2 23.8,22.2 23.8,22.2 23.8,22.2   " fill="#FFFFFF"/>
   </g>
   <g id="svg_72">
    <polygon id="svg_73" points="23.8,22.2 23.8,22.2 23.8,22.2 23.8,22.2 23.8,22.2 23.8,22.2 23.8,22.2 23.8,22.2   " fill="#FFFFFF"/>
   </g>
   <g id="svg_74">
    <polygon id="svg_75" points="23.8,22.2 23.8,22.2 23.8,22.2 23.8,22.2 23.8,22.2 23.8,22.2   " fill="#FFFFFF"/>
   </g>
  </g>
  <g id="svg_76">
   <g id="svg_77">
    <path id="svg_78" d="m45.1,33.4h-15.3c-0.5,0 -0.9,-0.4 -0.9,-0.9c0,-0.5 0.4,-0.9 0.9,-0.9h15.3c0.5,0 0.9,0.4 0.9,0.9c0,0.5 -0.4,0.9 -0.9,0.9z" fill="#FFFFFF"/>
   </g>
   <g id="svg_79">
    <path id="svg_80" d="m45.1,44.3h-38.8c-3.5,0 -6.3,-2.9 -6.3,-6.3c0,-3.5 2.8,-6.3 6.3,-6.3h10.4c0.5,0 0.9,0.4 0.9,0.9c0,0.5 -0.4,0.9 -0.9,0.9h-10.4c-2.5,0 -4.5,2 -4.5,4.5c0,2.5 2,4.5 4.5,4.5h38.8c0.5,0 0.9,0.4 0.9,0.9c0,0.5 -0.4,0.9 -0.9,0.9z" fill="#FFFFFF"/>
   </g>
   <g id="svg_81">
    <path id="svg_82" d="m16.7,28.1h-13.1c-0.5,0 -0.9,-0.4 -0.9,-0.9c0,-0.5 0.4,-0.9 0.9,-0.9h13.1c0.5,0 0.9,0.4 0.9,0.9c0,0.5 -0.4,0.9 -0.9,0.9z" fill="#FFFFFF"/>
   </g>
   <g id="svg_83">
    <path id="svg_84" d="m33.2,28.1h-3.5c-0.5,0 -0.9,-0.4 -0.9,-0.9c0,-0.5 0.4,-0.9 0.9,-0.9h3.5c3,0 5.5,-2.5 5.5,-5.5c0,-3 -2.5,-5.5 -5.5,-5.5h-29.6c-0.5,0 -0.9,-0.4 -0.9,-0.9c0,-0.5 0.4,-0.9 0.9,-0.9h29.6c4,0 7.3,3.3 7.3,7.3c-0.1,4.1 -3.3,7.3 -7.3,7.3z" fill="#FFFFFF"/>
   </g>
   <g id="svg_85">
    <path id="svg_86" d="m40.8,11.3h-29c-2.6,0 -4.8,-2.1 -4.8,-4.8s2.1,-4.8 4.8,-4.8h29c0.5,0 0.9,0.4 0.9,0.9c0,0.5 -0.4,0.9 -0.9,0.9h-29c-1.7,0 -3,1.3 -3,3c0,1.7 1.3,3 3,3h29c0.5,0 0.9,0.4 0.9,0.9c0,0.5 -0.4,0.9 -0.9,0.9z" fill="#FFFFFF"/>
   </g>
   <g id="svg_87">
    <path id="svg_88" d="m5.2,28.1c-0.5,0 -0.9,-0.4 -0.9,-0.9c0,-0.5 0.4,-0.9 0.9,-0.9c3,0 5.5,-2.4 5.5,-5.4c0,-3 -2.5,-5.4 -5.5,-5.4c-0.5,0 -0.9,-0.4 -0.9,-0.9s0.4,-0.9 0.9,-0.9c4,0 7.3,3.2 7.3,7.2c0,4 -3.3,7.2 -7.3,7.2z" fill="#FFFFFF"/>
   </g>
   <g id="svg_89">
    <path id="svg_90" d="m42,43.9c-3.3,0 -6.1,-2.7 -6.1,-6c0,-3.3 2.7,-6 6.1,-6c0.5,0 0.9,0.4 0.9,0.9c0,0.5 -0.4,0.9 -0.9,0.9c-2.4,0 -4.3,1.9 -4.3,4.2c0,2.3 1.9,4.2 4.3,4.2c0.5,0 0.9,0.4 0.9,0.9c0,0.5 -0.4,0.9 -0.9,0.9z" fill="#FFFFFF"/>
   </g>
   <g id="svg_91">
    <path id="svg_92" d="m29.5,39.7c-0.1,0 -0.2,0 -0.4,-0.1l-6,-2.6l-5.8,2.6c-0.3,0.1 -0.6,0.1 -0.9,-0.1c-0.3,-0.2 -0.4,-0.4 -0.4,-0.7v-17.4c0,-0.5 0.4,-0.9 0.9,-0.9c0.5,0 0.9,0.4 0.9,0.9v16l4.9,-2.2c0.2,-0.1 0.5,-0.1 0.7,0l5.1,2.2v-16c0,-0.5 0.4,-0.9 0.9,-0.9s0.9,0.4 0.9,0.9v17.4c0,0.3 -0.2,0.6 -0.4,0.7c-0.1,0.1 -0.2,0.2 -0.4,0.2z" fill="#FFFFFF"/>
   </g>
   <g id="svg_93">
    <path id="svg_94" d="m38.1,11.4c-2.6,0 -4.8,-2.1 -4.8,-4.8s2.1,-4.8 4.8,-4.8c0.5,0 0.9,0.4 0.9,0.9c0,0.5 -0.4,0.9 -0.9,0.9c-1.7,0 -3,1.3 -3,3s1.3,3 3,3c0.5,0 0.9,0.4 0.9,0.9c0,0.5 -0.4,0.9 -0.9,0.9z" fill="#FFFFFF"/>
   </g>
   <g id="svg_95">
    <path id="svg_96" d="m34.2,21.5h-11.3c-0.5,0 -0.9,-0.4 -0.9,-0.9c0,-0.5 0.4,-0.9 0.9,-0.9h11.3c0.5,0 0.9,0.4 0.9,0.9c0,0.5 -0.4,0.9 -0.9,0.9z" fill="#FFFFFF"/>
   </g>
  </g>
 </g>
</svg>