<svg width="28" height="28" xmlns="http://www.w3.org/2000/svg">
 <g>
  <title>Layer 1</title>
  <path id="svg_122" d="m26.9,15.3c0.6,-0.5 1.1,-1.2 1.1,-2.1c0,-1.4 -1.2,-2.6 -2.6,-2.6h-3.1h-0.5h-2.4c0.5,-2 0.9,-5.9 0.9,-7.3c0,-2.6 -1.4,-3.1 -2.6,-3.1c-0.8,0 -2.1,0.3 -2.1,2.6c0,3.1 -4.6,9.6 -5.5,10.9h-0.9c-0.1,-0.2 -0.2,-0.4 -0.3,-0.6c-0.3,-0.3 -0.7,-0.5 -1.1,-0.5h-6.2c-0.9,0 -1.6,0.7 -1.6,1.6v11.9c0,0.9 0.7,1.6 1.6,1.6h4.7c0.8,0 1.6,-0.7 1.7,-1.5l1.3,-11.5h1.2c0.2,0 0.3,-0.1 0.4,-0.2c0.2,-0.3 5.8,-8 5.8,-11.7c0,-1.1 0.3,-1.6 1,-1.6c0.8,0 1.6,0.3 1.6,2.1c0,1.6 -0.5,6.2 -1,7.6c-0.1,0.2 0,0.3 0.1,0.5c0.1,0.1 0.3,0.2 0.4,0.2h3.1h0.5h3.1c0.9,0 1.6,0.7 1.6,1.6s-0.7,1.6 -1.6,1.6h-1c-0.3,0 -0.5,0.2 -0.5,0.5c0,0.3 0.2,0.5 0.5,0.5h1c0.9,0 1.6,0.7 1.6,1.6c0,0.9 -0.7,1.6 -1.6,1.6h-0.5c-0.1,0 -0.1,0 -0.2,0c-0.1,0 -0.2,0 -0.3,0h-0.5c-0.3,0 -0.5,0.2 -0.5,0.5s0.2,0.5 0.5,0.5h0.5c0.9,0 1.6,0.7 1.6,1.6c0,0.9 -0.7,1.6 -1.6,1.6h-0.5c-0.1,0 -0.1,0 -0.2,0c-0.1,0 -0.1,0 -0.2,0h-0.5c-0.3,0 -0.5,0.2 -0.5,0.5s0.2,0.5 0.5,0.5c0.7,0 1.3,0.6 1.3,1.3s-0.7,1.3 -1.6,1.3h-4.1h-1.6h-1.8c-1.9,0 -3.7,-0.2 -4.2,-0.5l-1,-0.5c-0.3,-0.1 -0.6,0 -0.7,0.2c-0.1,0.3 0,0.6 0.2,0.7l1,0.5c0.7,0.4 2.9,0.6 4.6,0.6h1.8h1.6h4.1c1.4,0 2.6,-1 2.6,-2.3c0,-0.5 -0.2,-1 -0.4,-1.4c1.1,-0.3 2,-1.3 2,-2.5c0,-0.7 -0.3,-1.3 -0.7,-1.7c1,-0.4 1.7,-1.3 1.7,-2.4c0.1,-1 -0.3,-1.7 -1,-2.2zm-20,10.8c0,0.3 -0.3,0.6 -0.6,0.6h-4.7c-0.3,0 -0.5,-0.2 -0.5,-0.5v-11.9c0,-0.3 0.2,-0.5 0.5,-0.5h6.2c0.1,0 0.2,0 0.3,0.1c0.1,0.1 0.1,0.2 0.1,0.3l-1.3,11.9z" fill="#FFFFFF"/>
 </g>
</svg>