<svg width="54" height="54" xmlns="http://www.w3.org/2000/svg">
 <g>
  <title>Layer 1</title>
  <g id="svg_40">
   <g id="svg_41">
    <path id="svg_42" d="m40,36.7h-26.7c-3.4,0 -6.1,-2.5 -6.1,-5.6v-18.6c0,-3.1 2.7,-5.6 6.1,-5.6h26.7c3.4,0 6.1,2.5 6.1,5.6v18.6c0,3.1 -2.7,5.6 -6.1,5.6zm-26.7,-27.7c-2.2,0 -4,1.6 -4,3.5v18.6c0,1.9 1.8,3.5 4,3.5h26.7c2.2,0 4,-1.6 4,-3.5v-18.6c0,-1.9 -1.8,-3.5 -4,-3.5h-26.7l0,0z" fill="#D32D40"/>
   </g>
   <g id="svg_43">
    <path id="svg_44" d="m38.1,31.8h-22.9c-1.2,0 -2.1,-0.9 -2.1,-2v-16c0,-1.1 0.9,-2 2.1,-2h22.9c1.2,0 2.1,0.9 2.1,2v16c0,1.1 -0.9,2 -2.1,2zm-22.9,-2.1c0,0 0,0 0,0l23,0c0,0 0,0 0,0v-15.8c0,0 0,0 0,0h-23c0,0 0,0 0,0v15.8l0,0z" fill="#D32D40"/>
   </g>
   <g id="svg_45">
    <path id="svg_46" d="m51.4,47.1h-48.9c-1.7,0 -2.2,-0.8 -2.4,-1.2c-0.2,-0.5 -0.3,-1.4 0.8,-2.6l6.4,-6.3c1.3,-1.3 3.8,-2.4 5.7,-2.4c0.6,0 1,0.4 1.1,1c0,0.6 -0.4,1 -1,1.1c-1.3,0 -3.3,0.9 -4.3,1.8l-6.3,6.3c-0.1,0.1 -0.2,0.2 -0.2,0.3c0.1,0 0.2,0 0.4,0h48.9c0.2,0 0.3,0 0.4,0c-0.1,-0.1 -0.1,-0.2 -0.2,-0.3l-6.3,-6.3c-0.9,-0.9 -2.9,-1.8 -4.3,-1.8c-0.6,0 -1,-0.5 -1,-1.1c0,-0.6 0.5,-1 1.1,-1c1.9,0 4.4,1.1 5.7,2.4l6.3,6.3c1.2,1.2 1,2.1 0.8,2.6c-0.4,0.4 -1,1.2 -2.7,1.2z" fill="#D32D40"/>
   </g>
  </g>
 </g>
</svg>