<svg width="28" height="28" xmlns="http://www.w3.org/2000/svg">
 <g>
  <title>Layer 1</title>
  <g id="svg_114">
   <g id="svg_115">
    <path id="svg_116" d="m25.8,24.7h-23.6c-1.2,0 -2.2,-1 -2.2,-2.2v-17c0,-1.2 1,-2.2 2.2,-2.2h23.6c1.2,0 2.2,1 2.2,2.2v17.1c0,1.2 -1,2.1 -2.2,2.1zm-23.6,-20.3c-0.6,0 -1,0.5 -1,1v17.1c0,0.6 0.5,1 1,1h23.6c0.6,0 1,-0.5 1,-1v-17c0,-0.6 -0.5,-1 -1,-1h-23.6l0,-0.1z" fill="#FFFFFF"/>
   </g>
   <g id="svg_117">
    <path id="svg_118" d="m14,20.5c-0.6,0 -1.1,-0.2 -1.6,-0.6l-12.2,-12.3c-0.1,-0.1 -0.2,-0.3 -0.2,-0.4v-1.7c0,-1.2 1,-2.2 2.2,-2.2h23.6c1.2,0 2.2,1 2.2,2.2v1.7c0,0.2 -0.1,0.3 -0.2,0.4l-12.2,12.2c-0.5,0.5 -1,0.7 -1.6,0.7zm-12.8,-13.6l12.1,12.1c0.2,0.2 0.5,0.3 0.7,0.3c0.3,0 0.5,-0.1 0.7,-0.3l12.1,-12.1v-1.4c0,-0.6 -0.5,-1 -1,-1h-23.6c-0.6,0 -1,0.5 -1,1v1.4l0,0z" fill="#FFFFFF"/>
   </g>
   <g id="svg_119">
    <path id="svg_120" d="m26.8,24.4c-0.1,0 -0.3,-0.1 -0.4,-0.2l-8,-8c-0.2,-0.2 -0.2,-0.6 0,-0.8c0.2,-0.2 0.6,-0.2 0.8,0l8,8c0.2,0.2 0.2,0.6 0,0.8c-0.1,0.2 -0.3,0.2 -0.4,0.2z" fill="#FFFFFF"/>
   </g>
   <g id="svg_121">
    <path id="svg_122" d="m1.2,24.4c-0.1,0 -0.3,-0.1 -0.4,-0.2c-0.2,-0.2 -0.2,-0.6 0,-0.8l8,-8c0.2,-0.2 0.6,-0.2 0.8,0c0.2,0.2 0.2,0.6 0,0.8l-8,8c-0.1,0.2 -0.2,0.2 -0.4,0.2z" fill="#FFFFFF"/>
   </g>
  </g>
 </g>
</svg>