<svg width="40" height="40" xmlns="http://www.w3.org/2000/svg" xmlns:svg="http://www.w3.org/2000/svg">
 <g>
  <title>Layer 1</title>
  <path d="m36.29999,20.4c0.8,-0.7 1.5,-1.6 1.5,-2.8c0,-1.9 -1.6,-3.5 -3.5,-3.5l-4.2,0l-0.7,0l-3.2,0c0.7,-2.7 1.2,-8 1.2,-9.9c0,-3.5 -1.9,-4.2 -3.5,-4.2c-1.1,0 -2.8,0.4 -2.8,3.5c0,4.2 -6.2,13 -7.4,14.7l-1.2,0c-0.1,-0.3 -0.3,-0.5 -0.4,-0.8c-0.4,-0.4 -0.9,-0.7 -1.5,-0.7l-8.4,0c-1.2,0 -2.2,0.9 -2.2,2.2l0,16.1c0,1.2 0.9,2.2 2.2,2.2l6.3,0c1.1,0 2.2,-0.9 2.3,-2l1.8,-15.5l1.6,0c0.3,0 0.4,-0.1 0.5,-0.3c0.3,-0.4 7.8,-10.8 7.8,-15.8c0,-1.5 0.4,-2.2 1.4,-2.2c1.1,0 2.2,0.4 2.2,2.8c0,2.2 -0.7,8.4 -1.4,10.3c-0.1,0.3 0,0.4 0.1,0.7c0.1,0.1 0.4,0.3 0.5,0.3l4.2,0l0.7,0l4.2,0c1.2,0 2.2,0.9 2.2,2.2c0,1.2 -0.9,2.2 -2.2,2.2l-1.4,0c-0.4,0 -0.7,0.3 -0.7,0.7c0,0.4 0.3,0.7 0.7,0.7l1.4,0c1.2,0 2.2,0.9 2.2,2.2s-0.9,2.2 -2.2,2.2l-0.7,0c-0.1,0 -0.1,0 -0.3,0s-0.3,0 -0.4,0l-0.7,0c-0.4,0 -0.7,0.3 -0.7,0.7c0,0.4 0.3,0.7 0.7,0.7l0.7,0c1.2,0 2.2,0.9 2.2,2.2c0,1.2 -0.9,2.2 -2.2,2.2l-0.7,0c-0.1,0 -0.1,0 -0.3,0s-0.1,0 -0.3,0l-0.7,0c-0.4,0 -0.7,0.3 -0.7,0.7c0,0.4 0.3,0.7 0.7,0.7c0.9,0 1.8,0.8 1.8,1.8s-0.9,1.8 -2.2,1.8l-5.5,0l-2.2,0l-2.4,0c-2.6,0 -5,-0.3 -5.7,-0.7l-1.4,-0.7c-0.4,-0.1 -0.8,0 -0.9,0.3c-0.1,0.4 0,0.8 0.3,0.9l1.4,0.7c0.9,0.5 3.9,0.8 6.2,0.8l2.4,0l2.2,0l5.5,0c1.9,0 3.5,-1.4 3.5,-3.1c0,-0.7 -0.3,-1.4 -0.5,-1.9c1.5,-0.4 2.7,-1.8 2.7,-3.4c0,-0.9 -0.4,-1.8 -0.9,-2.3c1.4,-0.5 2.3,-1.8 2.3,-3.2c0.2,-1.9 -0.3,-2.8 -1.3,-3.5zm-27,14.6c0,0.4 -0.4,0.8 -0.8,0.8l-6.3,0c-0.4,0 -0.7,-0.3 -0.7,-0.7l0,-16.1c0,-0.4 0.3,-0.7 0.7,-0.7l8.4,0c0.1,0 0.3,0 0.4,0.1c0.1,0.1 0.1,0.3 0.1,0.4c0,0.1 -1.8,16.2 -1.8,16.2z" fill="#FFFFFF" id="svg_122"/>
 </g>
</svg>